<?xml version="1.0" encoding="UTF-8" standalone="no"?>
<!-- Created with Inkscape (http://www.inkscape.org/) -->

<svg
   width="39.678082mm"
   height="39.684105mm"
   viewBox="0 0 39.678081 39.684105"
   version="1.1"
   id="svg2304"
   sodipodi:docname="https://ipi.io/assets/images/landing/table-coins/btc.svg"
   inkscape:version="1.2.2 (b0a8486541, 2022-12-01)"
   xmlns:inkscape="http://www.inkscape.org/namespaces/inkscape"
   xmlns:sodipodi="http://sodipodi.sourceforge.net/DTD/sodipodi-0.dtd"
   xmlns="http://www.w3.org/2000/svg"
   xmlns:svg="http://www.w3.org/2000/svg">
  <sodipodi:namedview
     id="namedview2306"
     pagecolor="#ffffff"
     bordercolor="#666666"
     borderopacity="1.0"
     inkscape:showpageshadow="2"
     inkscape:pageopacity="0.0"
     inkscape:pagecheckerboard="0"
     inkscape:deskcolor="#d1d1d1"
     inkscape:document-units="mm"
     showgrid="false"
     inkscape:zoom="0.84096521"
     inkscape:cx="-137.34219"
     inkscape:cy="155.77339"
     inkscape:window-width="1742"
     inkscape:window-height="490"
     inkscape:window-x="987"
     inkscape:window-y="1118"
     inkscape:window-maximized="0"
     inkscape:current-layer="layer1" />
  <defs
     id="defs2301">
    <mask
       id="id16">
  <linearGradient
   id="id17"
   gradientUnits="userSpaceOnUse"
   x1="456.95999"
   y1="1391.9399"
   x2="450.34"
   y2="1385.3199">
   <stop
   offset="0"
   style="stop-opacity:0; stop-color:white"
   id="stop1245" />

   <stop
   offset="1"
   style="stop-opacity:1; stop-color:white"
   id="stop1247" />

  </linearGradient>

      <rect
   style="fill:url(#id17)"
   x="444.42999"
   y="1379.42"
   width="18.440001"
   height="18.43"
   id="rect1250" />

     </mask>
    <linearGradient
       id="linearGradient2453"
       gradientUnits="userSpaceOnUse"
       x1="456.95999"
       y1="1391.9399"
       x2="450.34"
       y2="1385.3199">
   <stop
   offset="0"
   style="stop-opacity:0; stop-color:white"
   id="stop2449" />

   <stop
   offset="1"
   style="stop-opacity:1; stop-color:white"
   id="stop2451" />

  </linearGradient>
    <mask
       id="id18">
  <linearGradient
   id="id19"
   gradientUnits="userSpaceOnUse"
   x1="433.64001"
   y1="1369.88"
   x2="440.35999"
   y2="1376.39">
   <stop
   offset="0"
   style="stop-opacity:0; stop-color:white"
   id="stop1253" />

   <stop
   offset="0.34902"
   style="stop-opacity:-127.502; stop-color:white"
   id="stop1255" />

   <stop
   offset="1"
   style="stop-opacity:1; stop-color:white"
   id="stop1257" />

  </linearGradient>

      <rect
   style="fill:url(#id19)"
   x="425.09"
   y="1363.78"
   width="21.700001"
   height="18"
   id="rect1260" />

     </mask>
    <linearGradient
       id="linearGradient2467"
       gradientUnits="userSpaceOnUse"
       x1="433.64001"
       y1="1369.88"
       x2="440.35999"
       y2="1376.39">
   <stop
   offset="0"
   style="stop-opacity:0; stop-color:white"
   id="stop2461" />

   <stop
   offset="0.34902"
   style="stop-opacity:-127.502; stop-color:white"
   id="stop2463" />

   <stop
   offset="1"
   style="stop-opacity:1; stop-color:white"
   id="stop2465" />

  </linearGradient>
    <mask
       id="id20">
  <linearGradient
   id="id21"
   gradientUnits="userSpaceOnUse"
   x1="484.14999"
   y1="1364.76"
   x2="477.53"
   y2="1358.14">
   <stop
   offset="0"
   style="stop-opacity:0; stop-color:white"
   id="stop1263" />

   <stop
   offset="1"
   style="stop-opacity:1; stop-color:white"
   id="stop1265" />

  </linearGradient>

      <rect
   style="fill:url(#id21)"
   x="471.62"
   y="1352.23"
   width="18.440001"
   height="18.440001"
   id="rect1268" />

     </mask>
    <linearGradient
       id="linearGradient2478"
       gradientUnits="userSpaceOnUse"
       x1="484.14999"
       y1="1364.76"
       x2="477.53"
       y2="1358.14">
   <stop
   offset="0"
   style="stop-opacity:0; stop-color:white"
   id="stop2474" />

   <stop
   offset="1"
   style="stop-opacity:1; stop-color:white"
   id="stop2476" />

  </linearGradient>
    <mask
       id="id22">
  <linearGradient
   id="id23"
   gradientUnits="userSpaceOnUse"
   x1="461.45001"
   y1="1342.0601"
   x2="468.07001"
   y2="1348.6801">
   <stop
   offset="0"
   style="stop-opacity:0; stop-color:white"
   id="stop1271" />

   <stop
   offset="1"
   style="stop-opacity:1; stop-color:white"
   id="stop1273" />

  </linearGradient>

      <rect
   style="fill:url(#id23)"
   x="455.54001"
   y="1336.16"
   width="18.440001"
   height="18.43"
   id="rect1276" />

     </mask>
    <linearGradient
       id="linearGradient2489"
       gradientUnits="userSpaceOnUse"
       x1="461.45001"
       y1="1342.0601"
       x2="468.07001"
       y2="1348.6801">
   <stop
   offset="0"
   style="stop-opacity:0; stop-color:white"
   id="stop2485" />

   <stop
   offset="1"
   style="stop-opacity:1; stop-color:white"
   id="stop2487" />

  </linearGradient>
    <mask
       id="id24">
  <linearGradient
   id="id25"
   gradientUnits="userSpaceOnUse"
   x1="511.95999"
   y1="1391.3101"
   x2="505.23001"
   y2="1384.8">
   <stop
   offset="0"
   style="stop-opacity:0; stop-color:white"
   id="stop1279" />

   <stop
   offset="0.34902"
   style="stop-opacity:-127.502; stop-color:white"
   id="stop1281" />

   <stop
   offset="1"
   style="stop-opacity:1; stop-color:white"
   id="stop1283" />

  </linearGradient>

      <rect
   style="fill:url(#id25)"
   x="498.79999"
   y="1379.42"
   width="21.700001"
   height="17.99"
   id="rect1286" />

     </mask>
    <linearGradient
       id="linearGradient2503"
       gradientUnits="userSpaceOnUse"
       x1="511.95999"
       y1="1391.3101"
       x2="505.23001"
       y2="1384.8">
   <stop
   offset="0"
   style="stop-opacity:0; stop-color:white"
   id="stop2497" />

   <stop
   offset="0.34902"
   style="stop-opacity:-127.502; stop-color:white"
   id="stop2499" />

   <stop
   offset="1"
   style="stop-opacity:1; stop-color:white"
   id="stop2501" />

  </linearGradient>
    <mask
       id="id26">
  <linearGradient
   id="id27"
   gradientUnits="userSpaceOnUse"
   x1="488.63"
   y1="1369.25"
   x2="495.25"
   y2="1375.87">
   <stop
   offset="0"
   style="stop-opacity:0; stop-color:white"
   id="stop1289" />

   <stop
   offset="1"
   style="stop-opacity:1; stop-color:white"
   id="stop1291" />

  </linearGradient>

      <rect
   style="fill:url(#id27)"
   x="482.73001"
   y="1363.34"
   width="18.43"
   height="18.440001"
   id="rect1294" />

     </mask>
    <linearGradient
       id="linearGradient2514"
       gradientUnits="userSpaceOnUse"
       x1="488.63"
       y1="1369.25"
       x2="495.25"
       y2="1375.87">
   <stop
   offset="0"
   style="stop-opacity:0; stop-color:white"
   id="stop2510" />

   <stop
   offset="1"
   style="stop-opacity:1; stop-color:white"
   id="stop2512" />

  </linearGradient>
    <mask
       id="id28">
  <linearGradient
   id="id29"
   gradientUnits="userSpaceOnUse"
   x1="484.14999"
   y1="1396.4301"
   x2="477.53"
   y2="1403.05">
   <stop
   offset="0"
   style="stop-opacity:0; stop-color:white"
   id="stop1297" />

   <stop
   offset="1"
   style="stop-opacity:1; stop-color:white"
   id="stop1299" />

  </linearGradient>

      <rect
   style="fill:url(#id29)"
   x="471.62"
   y="1390.52"
   width="18.43"
   height="18.440001"
   id="rect1302" />

     </mask>
    <linearGradient
       id="linearGradient2525"
       gradientUnits="userSpaceOnUse"
       x1="484.14999"
       y1="1396.4301"
       x2="477.53"
       y2="1403.05">
   <stop
   offset="0"
   style="stop-opacity:0; stop-color:white"
   id="stop2521" />

   <stop
   offset="1"
   style="stop-opacity:1; stop-color:white"
   id="stop2523" />

  </linearGradient>
    <mask
       id="id30">
  <linearGradient
   id="id31"
   gradientUnits="userSpaceOnUse"
   x1="461.45001"
   y1="1419.13"
   x2="468.07001"
   y2="1412.51">
   <stop
   offset="0"
   style="stop-opacity:0; stop-color:white"
   id="stop1305" />

   <stop
   offset="1"
   style="stop-opacity:1; stop-color:white"
   id="stop1307" />

  </linearGradient>

      <rect
   style="fill:url(#id31)"
   x="455.54001"
   y="1406.6"
   width="18.440001"
   height="18.440001"
   id="rect1310" />

     </mask>
    <linearGradient
       id="linearGradient2536"
       gradientUnits="userSpaceOnUse"
       x1="461.45001"
       y1="1419.13"
       x2="468.07001"
       y2="1412.51">
   <stop
   offset="0"
   style="stop-opacity:0; stop-color:white"
   id="stop2532" />

   <stop
   offset="1"
   style="stop-opacity:1; stop-color:white"
   id="stop2534" />

  </linearGradient>
  </defs>
  <g
     inkscape:label="Layer 1"
     inkscape:groupmode="layer"
     id="layer1"
     transform="translate(-313.16332,-131.30941)">
    <g
       id="_1179987456"
       style="clip-rule:evenodd;fill-rule:evenodd;image-rendering:optimizeQuality;shape-rendering:geometricPrecision;text-rendering:geometricPrecision"
       transform="matrix(0.26464001,0,0,0.26464001,90.166126,-212.8569)">
   <path
   class="fil2"
   d="m 990.33,1393.62 c -10.01,40.17 -50.69,64.61 -90.86,54.6 -40.16,-10.02 -64.6,-50.7 -54.58,-90.87 10.01,-40.17 50.69,-64.61 90.85,-54.6 40.16,10.02 64.61,50.7 54.59,90.87 z"
   id="path1631"
   style="fill:#2a3752;fill-rule:nonzero" />

   <path
   class="fil3"
   d="m 943.79,1367.97 c 1.21,-8.05 -4.93,-12.38 -13.31,-15.27 l 2.72,-10.91 -6.64,-1.65 -2.65,10.62 c -1.75,-0.44 -3.54,-0.85 -5.32,-1.25 l 2.67,-10.7 -6.64,-1.65 -2.72,10.9 c -1.45,-0.32 -2.87,-0.65 -4.24,-0.99 l 0.01,-0.04 -9.16,-2.28 -1.77,7.09 c 0,0 4.93,1.13 4.82,1.2 2.69,0.67 3.18,2.45 3.1,3.86 l -3.1,12.43 c 0.19,0.05 0.43,0.12 0.69,0.22 -0.22,-0.05 -0.46,-0.11 -0.7,-0.17 l -4.34,17.41 c -0.33,0.82 -1.17,2.04 -3.05,1.58 0.07,0.09 -4.82,-1.21 -4.82,-1.21 l -3.3,7.61 8.64,2.15 c 1.61,0.4 3.18,0.83 4.74,1.22 l -2.75,11.04 6.63,1.65 2.72,-10.92 c 1.82,0.5 3.57,0.95 5.29,1.38 l -2.71,10.86 6.64,1.66 2.75,-11.02 c 11.33,2.15 19.84,1.28 23.43,-8.96 2.88,-8.25 -0.15,-13 -6.11,-16.11 4.34,-1 7.61,-3.85 8.48,-9.75 z m -15.17,21.28 c -2.05,8.25 -15.94,3.79 -20.44,2.67 l 3.65,-14.62 c 4.5,1.12 18.93,3.35 16.79,11.95 z m 2.05,-21.4 c -1.87,7.5 -13.43,3.69 -17.18,2.76 l 3.31,-13.26 c 3.75,0.93 15.82,2.68 13.87,10.5 z"
   id="path1633"
   style="fill:#577092" />

  </g>
  </g>
</svg>
